<svg height="512pt" viewBox="0 0 512 512" width="512pt" xmlns="http://www.w3.org/2000/svg"><path d="m512 256c0 141.386719-114.613281 256-256 256s-256-114.613281-256-256 114.613281-256 256-256 256 114.613281 256 256zm0 0" fill="#4a7aff"/><path d="m512 256c0-7.023438-.296875-13.976562-.847656-20.855469l-80.988282-80.988281-89.671874-12.175781-52.140626-52.136719-220.136718 138.085938 17.074218 137.664062 145.140626 145.136719c8.410156.835937 16.9375 1.269531 25.570312 1.269531 141.386719 0 256-114.613281 256-256zm0 0" fill="#1959db"/><path d="m243.351562 326.550781-19.703124 19.707031 26.125 26.121094h-79.976563c-51.125 0-92.722656-41.59375-92.722656-92.71875 0-48.066406 36.777343-87.683594 83.664062-92.25v-27.996094c-62.277343 4.644532-111.527343 56.800782-111.527343 120.246094 0 66.492188 54.09375 120.585938 120.585937 120.585938h79.980469l-26.128906 26.125 19.703124 19.707031 59.773438-59.765625zm0 0" fill="#fff"/><path d="m223.648438 346.257812 26.125 26.121094h-79.976563c-51.125 0-92.722656-41.59375-92.722656-92.71875 0-8.214844 1.097656-16.167968 3.113281-23.753906h-28.625c-1.539062 7.683594-2.351562 15.625-2.351562 23.753906 0 66.492188 54.09375 120.585938 120.585937 120.585938h79.980469l-26.128906 26.125 19.703124 19.707031 59.773438-59.765625-59.773438-59.761719zm0 0" fill="#e9edf5"/><path d="m278.894531 146.523438c0-44.894532-35.800781-81.21875-79.722656-80.59375-43.398437.621093-78.351563 37.777343-77.46875 82.273437.441406 22.054687 9.519531 41.929687 23.90625 56.21875 9.347656 9.28125 15.285156 21.585937 16.394531 34.878906l3.316406 39.78125h69.941407l3.316406-39.78125c1.105469-13.253906 6.976563-25.558593 16.308594-34.796875 14.800781-14.65625 24.007812-35.214844 24.007812-57.980468zm0 0" fill="#ffce00"/><path d="m200.953125 65.953125v213.128906h34.308594l3.316406-39.78125c1.105469-13.253906 6.976563-25.558593 16.308594-34.796875 14.800781-14.65625 24.007812-35.214844 24.007812-57.980468 0-44.285157-34.839843-80.203126-77.941406-80.570313zm0 0" fill="#fca915"/><path d="m200.292969 306.796875c-20.546875 0-37.203125-16.660156-37.203125-37.207031v-17.320313h74.40625v17.320313c0 20.546875-16.65625 37.207031-37.203125 37.207031zm0 0" fill="#fff"/><path d="m200.953125 252.269531v54.507813c20.238281-.351563 36.542969-16.859375 36.542969-37.183594v-17.324219zm0 0" fill="#e9edf5"/><path d="m462.792969 236.554688c0-66.492188-54.097657-120.585938-120.585938-120.585938h-79.984375l26.128906-26.125-19.703124-19.707031-59.773438 59.761719 59.773438 59.765624 19.703124-19.707031-26.125-26.121093h79.976563c51.125 0 92.722656 41.59375 92.722656 92.71875 0 45.804687-33.394531 83.953124-77.113281 91.394531v28.179687c59.148438-7.675781 104.980469-58.371094 104.980469-119.574218zm0 0" fill="#fff"/><path d="m432.871094 255.90625c-7.859375 36.855469-37.671875 65.679688-75.058594 72.042969v28.179687c52.78125-6.851562 94.957031-47.960937 103.421875-100.226562h-28.363281zm0 0" fill="#e9edf5"/><path d="m438.035156 346.996094c0 37.535156-30.429687 67.964844-67.96875 67.964844-37.535156 0-67.964844-30.429688-67.964844-67.964844 0-37.539063 30.429688-67.96875 67.964844-67.96875 37.539063 0 67.96875 30.429687 67.96875 67.96875zm0 0" fill="#ffc612"/><path d="m370.066406 279.027344c-.019531 0-.042968.003906-.066406.003906v135.929688h.066406c37.539063 0 67.96875-30.429688 67.96875-67.964844s-30.429687-67.96875-67.96875-67.96875zm0 0" fill="#fa0"/><path d="m413.484375 346.996094c0 23.976562-19.4375 43.414062-43.417969 43.414062-23.976562 0-43.414062-19.4375-43.414062-43.414062 0-23.980469 19.4375-43.417969 43.414062-43.417969 23.980469 0 43.417969 19.4375 43.417969 43.417969zm0 0" fill="#ffb115"/><path d="m370.066406 303.578125c-.019531 0-.042968.003906-.066406.003906v86.828125h.066406c23.980469 0 43.417969-19.4375 43.417969-43.414062 0-23.980469-19.4375-43.417969-43.417969-43.417969zm0 0" fill="#ff8500"/></svg>